<svg width="1228" height="488" viewBox="0 0 1228 488" fill="none" xmlns="http://www.w3.org/2000/svg">
<path d="M0 487.5V0.5H170.5L307.5 312.5L444.5 0.5H615V487.5H488.5V187.5L370.5 487.5H244.5L126.5 187.5V487.5H0Z" fill="white"/>
<path d="M613.5 244.5C613.5 163.5 670.5 122.5 764.5 122.5C858.5 122.5 915.5 163.5 915.5 244.5C915.5 325.5 858.5 366.5 764.5 366.5C670.5 366.5 613.5 325.5 613.5 244.5ZM764.5 306.5C800.5 306.5 819.5 292.5 819.5 264.5C819.5 236.5 800.5 222.5 764.5 222.5C728.5 222.5 709.5 236.5 709.5 264.5C709.5 292.5 728.5 306.5 764.5 306.5Z" fill="#6E56CF"/>
<path d="M613 487.5V0.5H783.5L920.5 312.5L1057.5 0.5H1228V487.5H1101.5V187.5L983.5 487.5H857.5L739.5 187.5V487.5H613Z" fill="white"/>
</svg>
